<?xml version="1.0" encoding="UTF-8"?>
<svg xmlns="http://www.w3.org/2000/svg" xmlns:xlink="http://www.w3.org/1999/xlink" viewBox="0 0 250 250" width="250px" height="250px">
<g id="surface144250577">
<path style=" stroke:none;fill-rule:nonzero;fill:rgb(100%,100%,100%);fill-opacity:1;" d="M 126.269531 10.265625 L 231.613281 46.046875 C 233.851562 46.808594 235.25 49.039062 234.960938 51.386719 L 218.425781 186.992188 C 218.234375 188.589844 217.28125 189.996094 215.871094 190.769531 L 186.769531 206.722656 L 186.769531 195.324219 L 208.808594 183.242188 L 224.539062 54.207031 L 124.6875 20.292969 L 25.449219 54.824219 L 41.191406 183.875 L 66.769531 197.78125 L 66.769531 209.164062 L 34.148438 191.433594 C 32.730469 190.664062 31.769531 189.253906 31.570312 187.644531 L 15.039062 52.03125 C 14.753906 49.695312 16.136719 47.472656 18.359375 46.699219 L 123.015625 10.273438 C 123.589844 10.074219 124.199219 9.980469 124.804688 10 C 125.304688 10.015625 125.796875 10.101562 126.269531 10.261719 Z M 127.175781 239.386719 C 125.683594 240.203125 123.878906 240.207031 122.382812 239.394531 L 95.855469 224.976562 L 116.800781 224.976562 L 124.765625 229.308594 L 132.667969 224.976562 L 153.464844 224.976562 Z M 129.53125 32.890625 L 194.53125 172.890625 C 195.25 174.4375 195.132812 176.246094 194.214844 177.6875 C 193.296875 179.128906 191.707031 180 190 180 L 183.121094 180 C 180.40625 176.890625 176.382812 174.976562 171.769531 174.976562 L 162.289062 174.976562 L 150.714844 150.039062 L 99.285156 150.039062 L 87.710938 174.976562 L 81.769531 174.976562 C 77.15625 174.976562 73.132812 176.890625 70.417969 180 L 60 180 C 58.292969 180 56.703125 179.128906 55.785156 177.6875 C 54.867188 176.246094 54.75 174.4375 55.46875 172.890625 L 120.46875 32.890625 C 121.316406 31.070312 123.167969 29.929688 125.175781 30 C 127.054688 30.066406 128.738281 31.183594 129.53125 32.890625 Z M 67.832031 170 L 78.984375 170 L 91.5625 142.929688 C 92.382812 141.167969 94.148438 140.039062 96.09375 140.039062 L 153.90625 140.039062 C 155.851562 140.039062 157.617188 141.167969 158.4375 142.929688 L 171.003906 170 L 182.167969 170 L 125 46.863281 Z M 129.542969 80.410156 L 149.171875 122.96875 C 149.882812 124.515625 149.757812 126.320312 148.835938 127.753906 C 147.917969 129.191406 146.332031 130.058594 144.628906 130.058594 L 105.371094 130.058594 C 103.667969 130.058594 102.082031 129.191406 101.164062 127.753906 C 100.242188 126.320312 100.117188 124.515625 100.832031 122.96875 L 120.460938 80.410156 C 121.304688 78.570312 123.171875 77.421875 125.195312 77.5 C 127.074219 77.574219 128.753906 78.699219 129.542969 80.410156 Z M 113.183594 120.058594 L 136.816406 120.058594 L 125 94.433594 Z M 113.183594 120.058594 "/>
<path style=" stroke:none;fill-rule:nonzero;fill:rgb(98.431373%,25.882354%,16.470589%);fill-opacity:1;" d="M 171.769531 214.976562 L 81.769531 214.976562 C 78.769531 214.976562 76.769531 212.976562 76.769531 209.976562 L 76.769531 189.976562 C 76.769531 186.976562 78.769531 184.976562 81.769531 184.976562 L 171.769531 184.976562 C 174.769531 184.976562 176.769531 186.976562 176.769531 189.976562 L 176.769531 209.976562 C 176.769531 212.976562 174.769531 214.976562 171.769531 214.976562 Z M 171.769531 214.976562 "/>
</g>
</svg>
