<?xml version="1.0" encoding="UTF-8"?>
<svg xmlns="http://www.w3.org/2000/svg" xmlns:xlink="http://www.w3.org/1999/xlink" viewBox="0 0 256 256" width="256px" height="256px">
<g id="surface150004935">
<path style=" stroke:none;fill-rule:nonzero;fill:rgb(0%,0%,0%);fill-opacity:1;" d="M 28.078125 16 C 20.921875 16 15.222656 22.355469 16.085938 29.460938 L 37.953125 210.4375 C 38.921875 218.449219 44.648438 225.109375 52.429688 227.320312 L 122.570312 247.234375 C 126.101562 248.234375 129.847656 248.257812 133.398438 247.296875 L 207.164062 227.3125 C 215.199219 225.136719 221.09375 218.230469 221.921875 209.96875 L 240.117188 29.21875 C 240.824219 22.191406 235.167969 16 228.101562 16 Z M 28.078125 24 L 228.101562 24 C 230.597656 24 232.398438 26.003906 232.15625 28.421875 L 231.578125 34.164062 C 230.894531 32.785156 229.476562 31.921875 227.9375 31.945312 C 225.730469 31.980469 223.96875 33.792969 224 36 L 224 44 C 223.980469 45.492188 224.792969 46.871094 226.105469 47.574219 C 227.417969 48.28125 229.015625 48.199219 230.25 47.359375 L 213.960938 209.164062 C 213.960938 209.167969 213.960938 209.167969 213.960938 209.171875 C 213.460938 214.140625 209.957031 218.273438 205.078125 219.59375 C 205.074219 219.59375 205.074219 219.59375 205.070312 219.59375 L 131.304688 239.578125 C 129.160156 240.160156 126.898438 240.144531 124.757812 239.539062 L 54.617188 219.625 C 49.894531 218.285156 46.480469 214.289062 45.898438 209.476562 L 26.351562 47.695312 C 27.597656 48.257812 29.046875 48.148438 30.191406 47.398438 C 31.335938 46.648438 32.015625 45.367188 32 44 L 32 36 C 32.015625 34.917969 31.589844 33.878906 30.824219 33.113281 C 30.0625 32.351562 29.019531 31.929688 27.9375 31.945312 C 26.617188 31.96875 25.390625 32.640625 24.664062 33.742188 L 24.03125 28.5 C 24.03125 28.496094 24.03125 28.496094 24.03125 28.492188 C 23.734375 26.054688 25.554688 24 28.078125 24 Z M 47.9375 31.945312 C 45.730469 31.980469 43.96875 33.792969 44 36 L 44 44 C 43.980469 45.441406 44.738281 46.785156 45.984375 47.511719 C 47.230469 48.238281 48.769531 48.238281 50.015625 47.511719 C 51.261719 46.785156 52.019531 45.441406 52 44 L 52 36 C 52.015625 34.917969 51.589844 33.878906 50.824219 33.113281 C 50.0625 32.351562 49.019531 31.929688 47.9375 31.945312 Z M 67.9375 31.945312 C 65.730469 31.980469 63.96875 33.792969 64 36 L 64 44 C 63.980469 45.441406 64.738281 46.785156 65.984375 47.511719 C 67.230469 48.238281 68.769531 48.238281 70.015625 47.511719 C 71.261719 46.785156 72.019531 45.441406 72 44 L 72 36 C 72.015625 34.917969 71.589844 33.878906 70.824219 33.113281 C 70.0625 32.351562 69.019531 31.929688 67.9375 31.945312 Z M 87.9375 31.945312 C 85.730469 31.980469 83.96875 33.792969 84 36 L 84 44 C 83.980469 45.441406 84.738281 46.785156 85.984375 47.511719 C 87.230469 48.238281 88.769531 48.238281 90.015625 47.511719 C 91.261719 46.785156 92.019531 45.441406 92 44 L 92 36 C 92.015625 34.917969 91.589844 33.878906 90.824219 33.113281 C 90.0625 32.351562 89.019531 31.929688 87.9375 31.945312 Z M 107.9375 31.945312 C 105.730469 31.980469 103.96875 33.792969 104 36 L 104 44 C 103.980469 45.441406 104.738281 46.785156 105.984375 47.511719 C 107.230469 48.238281 108.769531 48.238281 110.015625 47.511719 C 111.261719 46.785156 112.019531 45.441406 112 44 L 112 36 C 112.015625 34.917969 111.589844 33.878906 110.824219 33.113281 C 110.0625 32.351562 109.019531 31.929688 107.9375 31.945312 Z M 127.9375 31.945312 C 125.730469 31.980469 123.96875 33.792969 124 36 L 124 44 C 123.980469 45.441406 124.738281 46.785156 125.984375 47.511719 C 127.230469 48.238281 128.769531 48.238281 130.015625 47.511719 C 131.261719 46.785156 132.019531 45.441406 132 44 L 132 36 C 132.015625 34.917969 131.589844 33.878906 130.824219 33.113281 C 130.0625 32.351562 129.019531 31.929688 127.9375 31.945312 Z M 147.9375 31.945312 C 145.730469 31.980469 143.96875 33.792969 144 36 L 144 44 C 143.980469 45.441406 144.738281 46.785156 145.984375 47.511719 C 147.230469 48.238281 148.769531 48.238281 150.015625 47.511719 C 151.261719 46.785156 152.019531 45.441406 152 44 L 152 36 C 152.015625 34.917969 151.589844 33.878906 150.824219 33.113281 C 150.0625 32.351562 149.019531 31.929688 147.9375 31.945312 Z M 167.9375 31.945312 C 165.730469 31.980469 163.96875 33.792969 164 36 L 164 44 C 163.980469 45.441406 164.738281 46.785156 165.984375 47.511719 C 167.230469 48.238281 168.769531 48.238281 170.015625 47.511719 C 171.261719 46.785156 172.019531 45.441406 172 44 L 172 36 C 172.015625 34.917969 171.589844 33.878906 170.824219 33.113281 C 170.0625 32.351562 169.019531 31.929688 167.9375 31.945312 Z M 187.9375 31.945312 C 185.730469 31.980469 183.96875 33.792969 184 36 L 184 44 C 183.980469 45.441406 184.738281 46.785156 185.984375 47.511719 C 187.230469 48.238281 188.769531 48.238281 190.015625 47.511719 C 191.261719 46.785156 192.019531 45.441406 192 44 L 192 36 C 192.015625 34.917969 191.589844 33.878906 190.824219 33.113281 C 190.0625 32.351562 189.019531 31.929688 187.9375 31.945312 Z M 207.9375 31.945312 C 205.730469 31.980469 203.96875 33.792969 204 36 L 204 44 C 203.980469 45.441406 204.738281 46.785156 205.984375 47.511719 C 207.230469 48.238281 208.769531 48.238281 210.015625 47.511719 C 211.261719 46.785156 212.019531 45.441406 212 44 L 212 36 C 212.015625 34.917969 211.589844 33.878906 210.824219 33.113281 C 210.0625 32.351562 209.019531 31.929688 207.9375 31.945312 Z M 96 72 C 93.789062 72 92 73.789062 92 76 L 92 171.015625 C 81.621094 168.707031 71.246094 166.402344 60.867188 164.09375 C 59.613281 163.816406 58.300781 164.15625 57.34375 165.011719 C 56.382812 165.867188 55.894531 167.128906 56.023438 168.40625 L 58.484375 192.40625 C 58.652344 194.035156 59.792969 195.394531 61.367188 195.84375 C 79.214844 200.933594 97.058594 206.019531 114.90625 211.109375 C 116.113281 211.453125 117.410156 211.210938 118.414062 210.453125 C 119.414062 209.695312 120 208.511719 120 207.257812 L 120 76 C 120 73.789062 118.210938 72 116 72 Z M 140 72 C 137.789062 72 136 73.789062 136 76 L 136 164 C 136 165.21875 136.554688 166.371094 137.507812 167.128906 C 138.464844 167.890625 139.710938 168.171875 140.898438 167.898438 C 151.078125 165.546875 161.253906 163.191406 171.429688 160.84375 L 170.71875 171.546875 C 160.132812 174.40625 149.542969 177.277344 138.953125 180.140625 C 137.210938 180.613281 136 182.195312 136 184 L 136 208 C 136 209.253906 136.589844 210.4375 137.59375 211.191406 C 138.597656 211.949219 139.894531 212.1875 141.101562 211.84375 C 158.078125 206.96875 175.054688 202.09375 192.03125 197.21875 C 193.625 196.761719 194.769531 195.371094 194.914062 193.71875 L 200.234375 131.875 C 200.335938 130.671875 199.894531 129.488281 199.023438 128.652344 C 198.15625 127.816406 196.957031 127.414062 195.757812 127.5625 C 185.175781 128.867188 174.585938 130.171875 164 131.476562 L 164 100.023438 C 175.753906 100.082031 187.511719 100.136719 199.265625 100.195312 C 201.347656 100.203125 203.085938 98.613281 203.265625 96.539062 L 205.007812 76.34375 C 205.105469 75.226562 204.726562 74.121094 203.96875 73.296875 C 203.210938 72.46875 202.144531 72 201.023438 72 Z M 100 80 L 112 80 L 112 201.960938 C 96.71875 197.605469 81.445312 193.253906 66.164062 188.898438 L 64.539062 173.109375 C 74.738281 175.375 84.9375 177.640625 95.132812 179.90625 C 96.316406 180.167969 97.558594 179.878906 98.503906 179.121094 C 99.449219 178.359375 100 177.214844 100 176 Z M 144 80 L 196.664062 80 L 195.617188 92.179688 C 183.75 92.121094 171.890625 92.058594 160.023438 92 C 158.957031 91.992188 157.933594 92.414062 157.179688 93.164062 C 156.425781 93.914062 156 94.933594 156 96 L 156 136 C 156 137.144531 156.492188 138.238281 157.351562 138.996094 C 158.210938 139.753906 159.355469 140.109375 160.492188 139.96875 C 170.945312 138.679688 181.394531 137.390625 191.84375 136.101562 L 187.179688 190.289062 C 172.785156 194.421875 158.394531 198.554688 144 202.6875 L 144 187.0625 C 154.523438 184.214844 165.042969 181.375 175.5625 178.53125 C 177.210938 178.085938 178.394531 176.640625 178.507812 174.9375 L 179.773438 156 C 179.859375 154.738281 179.339844 153.507812 178.375 152.6875 C 177.410156 151.867188 176.117188 151.550781 174.882812 151.835938 C 164.585938 154.210938 154.296875 156.589844 144 158.96875 Z M 144 80 "/>
</g>
</svg>
