<?xml version="1.0" encoding="UTF-8"?>
<svg xmlns="http://www.w3.org/2000/svg" xmlns:xlink="http://www.w3.org/1999/xlink" viewBox="0 0 256 256" width="256px" height="256px">
<g id="surface144479510">
<path style=" stroke:none;fill-rule:nonzero;fill:rgb(98.431373%,25.882354%,16.470589%);fill-opacity:1;" d="M 152 132 C 152 145.253906 141.253906 156 128 156 C 114.746094 156 104 145.253906 104 132 C 104 118.746094 114.746094 108 128 108 C 141.253906 108 152 118.746094 152 132 Z M 152 132 "/>
<path style=" stroke:none;fill-rule:nonzero;fill:rgb(100%,100%,100%);fill-opacity:1;" d="M 128 160 C 112.5625 160 100 147.4375 100 132 C 100 116.5625 112.5625 104 128 104 C 143.4375 104 156 116.5625 156 132 C 156 147.4375 143.4375 160 128 160 Z M 128 112 C 116.972656 112 108 120.972656 108 132 C 108 143.027344 116.972656 152 128 152 C 139.027344 152 148 143.027344 148 132 C 148 120.972656 139.027344 112 128 112 Z M 128 112 "/>
<path style=" stroke:none;fill-rule:nonzero;fill:rgb(100%,100%,100%);fill-opacity:1;" d="M 128 184 C 60.710938 184 8 161.160156 8 132 C 8 102.839844 60.710938 80 128 80 C 195.289062 80 248 102.839844 248 132 C 248 161.160156 195.289062 184 128 184 Z M 128 88 C 67.289062 88 16 108.148438 16 132 C 16 155.851562 67.289062 176 128 176 C 188.710938 176 240 155.851562 240 132 C 240 108.148438 188.710938 88 128 88 Z M 128 88 "/>
<path style=" stroke:none;fill-rule:nonzero;fill:rgb(100%,100%,100%);fill-opacity:1;" d="M 81.265625 239.308594 C 76.375 239.308594 71.925781 238.1875 68 235.921875 C 55.402344 228.648438 50.300781 210.757812 53.628906 185.535156 C 56.800781 161.519531 67.214844 133.277344 82.964844 105.996094 C 98.714844 78.71875 117.972656 55.570312 137.183594 40.816406 C 157.363281 25.328125 175.410156 20.808594 188 28.078125 C 200.597656 35.351562 205.699219 53.242188 202.371094 78.464844 C 199.199219 102.476562 188.78125 130.722656 173.035156 158 C 157.285156 185.277344 138.027344 208.425781 118.816406 223.179688 C 104.929688 233.839844 92.050781 239.308594 81.265625 239.308594 Z M 174.734375 32.714844 C 165.800781 32.714844 154.421875 37.671875 142.054688 47.167969 C 123.65625 61.296875 105.136719 83.609375 89.894531 110 C 74.660156 136.390625 64.601562 163.585938 61.558594 186.585938 C 58.722656 208.066406 62.53125 223.519531 72 228.992188 C 81.46875 234.464844 96.746094 230.03125 113.945312 216.832031 C 132.34375 202.703125 150.863281 180.390625 166.105469 154 C 181.339844 127.609375 191.398438 100.414062 194.441406 77.417969 C 197.277344 55.933594 193.46875 40.480469 184 35.007812 C 181.34375 33.472656 178.222656 32.714844 174.734375 32.714844 Z M 174.734375 32.714844 "/>
<path style=" stroke:none;fill-rule:nonzero;fill:rgb(100%,100%,100%);fill-opacity:1;" d="M 174.734375 239.308594 C 163.953125 239.308594 151.070312 233.839844 137.183594 223.179688 C 117.972656 208.429688 98.714844 185.277344 82.964844 158 C 67.214844 130.722656 56.800781 102.476562 53.628906 78.460938 C 50.300781 53.242188 55.402344 35.351562 68 28.078125 C 80.601562 20.816406 98.644531 25.335938 118.816406 40.824219 C 138.027344 55.574219 157.285156 78.726562 173.035156 106.003906 C 188.785156 133.28125 199.199219 161.527344 202.371094 185.542969 C 205.699219 210.757812 200.597656 228.648438 188 235.921875 C 184.074219 238.1875 179.617188 239.308594 174.734375 239.308594 Z M 81.265625 32.714844 C 77.773438 32.714844 74.660156 33.472656 72 35.007812 C 62.53125 40.476562 58.722656 55.929688 61.558594 77.414062 C 64.601562 100.414062 74.660156 127.613281 89.894531 154 C 105.136719 180.390625 123.65625 202.703125 142.054688 216.832031 C 159.246094 230.03125 174.53125 234.460938 184 228.992188 C 193.46875 223.523438 197.277344 208.070312 194.441406 186.585938 C 191.398438 163.585938 181.339844 136.386719 166.105469 110 C 150.863281 83.609375 132.34375 61.296875 113.945312 47.167969 C 101.585938 37.675781 90.203125 32.714844 81.265625 32.714844 Z M 81.265625 32.714844 "/>
<path style=" stroke:none;fill-rule:nonzero;fill:rgb(100%,100%,100%);fill-opacity:1;" d="M 41.851562 187.886719 C 41.675781 187.886719 41.5 187.875 41.320312 187.851562 L 33.390625 186.796875 C 31.199219 186.503906 29.660156 184.496094 29.957031 182.304688 C 30.242188 180.113281 32.242188 178.570312 34.449219 178.867188 L 42.375 179.925781 C 44.566406 180.214844 46.109375 182.222656 45.8125 184.414062 C 45.546875 186.425781 43.828125 187.886719 41.851562 187.886719 Z M 41.851562 187.886719 "/>
<path style=" stroke:none;fill-rule:nonzero;fill:rgb(100%,100%,100%);fill-opacity:1;" d="M 32.777344 207.539062 C 30.632812 207.539062 28.855469 205.835938 28.785156 203.671875 C 28.707031 201.464844 30.4375 199.617188 32.648438 199.542969 L 40.640625 199.277344 C 42.84375 199.128906 44.699219 200.929688 44.773438 203.140625 C 44.847656 205.347656 43.121094 207.195312 40.90625 207.269531 L 32.910156 207.535156 C 32.871094 207.539062 32.824219 207.539062 32.777344 207.539062 Z M 32.777344 207.539062 "/>
<path style=" stroke:none;fill-rule:nonzero;fill:rgb(100%,100%,100%);fill-opacity:1;" d="M 36.035156 228.371094 C 34.320312 228.371094 32.734375 227.265625 32.210938 225.539062 C 31.566406 223.429688 32.757812 221.191406 34.867188 220.546875 L 42.519531 218.210938 C 44.640625 217.546875 46.871094 218.757812 47.511719 220.867188 C 48.160156 222.980469 46.96875 225.214844 44.855469 225.859375 L 37.203125 228.195312 C 36.8125 228.316406 36.421875 228.371094 36.035156 228.371094 Z M 36.035156 228.371094 "/>
<path style=" stroke:none;fill-rule:nonzero;fill:rgb(100%,100%,100%);fill-opacity:1;" d="M 46.207031 247.40625 C 45.085938 247.40625 43.964844 246.9375 43.171875 246.011719 C 41.734375 244.335938 41.925781 241.808594 43.601562 240.371094 L 49.671875 235.160156 C 51.34375 233.726562 53.867188 233.910156 55.3125 235.589844 C 56.746094 237.265625 56.558594 239.792969 54.882812 241.226562 L 48.8125 246.441406 C 48.058594 247.089844 47.132812 247.40625 46.207031 247.40625 Z M 46.207031 247.40625 "/>
<path style=" stroke:none;fill-rule:nonzero;fill:rgb(100%,100%,100%);fill-opacity:1;" d="M 223.085938 74.871094 C 223.003906 74.871094 222.929688 74.867188 222.847656 74.863281 L 214.863281 74.402344 C 212.65625 74.28125 210.972656 72.386719 211.105469 70.179688 C 211.226562 67.976562 213.132812 66.296875 215.328125 66.421875 L 223.3125 66.878906 C 225.519531 67.003906 227.203125 68.894531 227.070312 71.105469 C 226.949219 73.226562 225.183594 74.871094 223.085938 74.871094 Z M 223.085938 74.871094 "/>
<path style=" stroke:none;fill-rule:nonzero;fill:rgb(100%,100%,100%);fill-opacity:1;" d="M 214.363281 55.1875 C 212.414062 55.1875 210.710938 53.769531 210.410156 51.78125 C 210.085938 49.597656 211.59375 47.554688 213.777344 47.226562 L 221.6875 46.039062 C 223.878906 45.753906 225.910156 47.222656 226.238281 49.402344 C 226.566406 51.589844 225.058594 53.628906 222.875 53.957031 L 214.964844 55.144531 C 214.761719 55.171875 214.558594 55.1875 214.363281 55.1875 Z M 214.363281 55.1875 "/>
<path style=" stroke:none;fill-rule:nonzero;fill:rgb(100%,100%,100%);fill-opacity:1;" d="M 208.859375 37.34375 C 207.421875 37.34375 206.027344 36.566406 205.3125 35.199219 C 204.285156 33.246094 205.042969 30.828125 207 29.800781 L 214.085938 26.085938 C 216.035156 25.058594 218.457031 25.8125 219.484375 27.773438 C 220.511719 29.722656 219.753906 32.144531 217.796875 33.171875 L 210.710938 36.886719 C 210.121094 37.195312 209.484375 37.34375 208.859375 37.34375 Z M 208.859375 37.34375 "/>
<path style=" stroke:none;fill-rule:nonzero;fill:rgb(100%,100%,100%);fill-opacity:1;" d="M 197.0625 23.675781 C 196.265625 23.675781 195.457031 23.4375 194.753906 22.9375 C 192.953125 21.65625 192.527344 19.160156 193.808594 17.355469 L 198.441406 10.832031 C 199.71875 9.03125 202.210938 8.605469 204.019531 9.886719 C 205.820312 11.167969 206.242188 13.664062 204.964844 15.46875 L 200.332031 21.992188 C 199.546875 23.089844 198.316406 23.675781 197.0625 23.675781 Z M 197.0625 23.675781 "/>
</g>
</svg>
